<svg width="431" height="431" viewBox="0 0 431 431" fill="none" xmlns="http://www.w3.org/2000/svg">
<path d="M389.24 181.66C364.74 181.66 340.26 178.32 316.99 170.66C313.28 169.44 309.06 168.62 304.41 168.62C280.32 168.62 262.73 189.09 262.73 223.07C262.73 257.05 280.32 278.18 305.91 278.18C318.15 278.18 328.24 272.16 336.48 263.19L357.62 286.42C343.78 302.79 324.79 311.34 301.96 311.34C259.79 311.34 223.38 281.55 223.38 224.34C223.38 167.13 258.97 135.46 304.42 135.46C311.97 135.46 319.04 136.73 325.54 138.86C347.72 146.14 371.01 149.39 394.35 149.39H430.35V0H0V260.5H38.52C65.15 260.5 91.46 265.52 116.58 274.37C122.91 276.6 130.65 278.19 139.86 278.19C156.15 278.19 163.68 271.88 163.68 263.59C163.68 251.38 153.6 248.43 137.54 241.7L115.44 232.27C96.64 225.13 79.49 210.71 79.49 186.02C79.49 157.92 104.8 135.47 141.66 135.47C162.07 135.47 182.69 143.12 198 157.68L178.66 181.88C166.72 173.3 156.14 168.63 139.57 168.63C126.92 168.63 118.34 173.87 118.34 183.78C118.34 193.69 129.71 197.71 145.98 203.82L166.74 212.61C188.95 220.94 202.98 234.79 202.98 258.73C202.98 286.93 179.32 311.35 137.33 311.35C126.54 311.35 115.58 309.49 105.13 305.84C81.26 297.5 56.29 292.77 31.01 292.77H0V430.34H430.34V181.66H389.24Z" fill="#042A29"/>
</svg>
