<svg width="84" height="101" viewBox="0 0 84 101" fill="none" xmlns="http://www.w3.org/2000/svg">
<g id="Group 64">
<path id="Vector" d="M78.5979 14.1219C69.3071 0.831747 50.9559 -3.10757 37.6891 5.34193L14.3904 20.1861C12.823 21.171 11.3608 22.316 10.0304 23.603C8.69841 24.89 7.50493 26.3121 6.46836 27.8461C5.43178 29.3801 4.55712 31.0176 3.85773 32.7319C3.16003 34.4469 2.64204 36.2297 2.31205 38.0516C2.03663 39.5789 1.8864 41.128 1.86637 42.6803C1.84467 44.2343 1.95317 45.7867 2.18853 47.3207C2.42388 48.8564 2.7861 50.3703 3.27017 51.8459C3.75424 53.3215 4.36016 54.7537 5.08125 56.1291C4.58519 56.8829 4.12725 57.6612 3.70917 58.4609C3.2902 59.2605 2.91296 60.0817 2.57745 60.9197C2.24194 61.7576 1.94983 62.6123 1.70112 63.4802C1.45241 64.3482 1.24877 65.2279 1.08852 66.1159C0.422683 69.8502 0.510651 73.6799 1.34725 77.3797C1.76455 79.2242 2.36379 81.0236 3.1383 82.7495C3.91281 84.4755 4.85591 86.1213 5.95758 87.6603C15.2484 100.95 33.5979 104.89 46.8647 96.4403L70.1634 81.6578C71.7308 80.6713 73.1897 79.5246 74.52 78.236C75.8502 76.9484 77.0433 75.5264 78.0804 73.9929C79.117 72.4605 79.9916 70.8231 80.691 69.1088C81.3904 67.3962 81.9096 65.6135 82.2417 63.7924C82.5172 62.2651 82.6657 60.7177 82.6857 59.1654C82.7058 57.613 82.5973 56.0606 82.3602 54.5266C82.1249 52.9926 81.7627 51.4803 81.2769 50.0048C80.7912 48.5309 80.1853 47.0987 79.4642 45.7233C79.9599 44.9705 80.419 44.1909 80.8379 43.3914C81.2552 42.5918 81.6341 41.7706 81.9697 40.9327C82.3052 40.0947 82.5989 39.2401 82.8493 38.3721C83.098 37.5058 83.305 36.6261 83.4669 35.7381C83.7974 33.8753 83.941 31.9841 83.8976 30.0929C83.8542 28.2017 83.6222 26.3205 83.2049 24.4743C82.7876 22.6299 82.1883 20.8305 81.4138 19.1045C80.6403 17.3783 79.697 15.7332 78.5979 14.1937" fill="#FF3E00"/>
<path id="Vector_2" d="M35.4123 88.9456C33.5888 89.4193 31.7037 89.6118 29.8222 89.5165C27.941 89.4197 26.0848 89.0391 24.3188 88.3831C22.5527 87.7281 20.8968 86.8079 19.408 85.6539C17.9205 84.4993 16.6175 83.1248 15.5438 81.5778C14.8812 80.6514 14.3136 79.6632 13.8496 78.6249C13.3842 77.5874 13.0235 76.5059 12.773 75.3967C12.5243 74.2867 12.384 73.155 12.359 72.0182C12.334 70.8815 12.4224 69.7448 12.6227 68.6247C12.6545 68.4428 12.6912 68.2609 12.7312 68.0806C12.7696 67.8986 12.813 67.7184 12.8598 67.5398C12.9048 67.3595 12.9549 67.1809 13.0083 67.0023C13.0601 66.8253 13.1168 66.6484 13.1752 66.4731L13.6142 65.1328L14.8111 66.0258C15.4971 66.5266 16.2048 66.9989 16.9309 67.4396C17.657 67.882 18.4015 68.2926 19.1627 68.6698C19.9221 69.0487 20.7 69.3959 21.4895 69.7081C22.2791 70.0219 23.0819 70.3006 23.8965 70.546L24.7895 70.8047L24.7094 71.6978C24.6664 72.3055 24.7296 72.9161 24.8964 73.5022C24.9781 73.7959 25.0866 74.0797 25.2185 74.3534C25.3504 74.6272 25.5056 74.8893 25.6826 75.1363C26.0067 75.6023 26.4002 76.016 26.8493 76.3632C27.2967 76.7104 27.7958 76.9874 28.3282 77.1844C28.8607 77.3814 29.4182 77.4949 29.9857 77.5233C30.5516 77.5533 31.1191 77.4949 31.6683 77.3513C31.7952 77.318 31.9187 77.2796 32.0422 77.2362C32.1657 77.1928 32.2876 77.146 32.4061 77.0926C32.5263 77.0409 32.6431 76.9841 32.76 76.9223C32.8751 76.8623 32.987 76.7972 33.0971 76.7271L56.3608 61.8812C56.646 61.7024 56.9117 61.4942 57.1536 61.2602C57.3957 61.0249 57.611 60.7661 57.7996 60.4874C57.9882 60.2086 58.1451 59.9098 58.272 59.5977C58.3972 59.2856 58.4907 58.9617 58.5508 58.6312C58.6092 58.2924 58.6342 57.9502 58.6259 57.6063C58.6175 57.2642 58.5741 56.9236 58.4973 56.5881C58.4222 56.2543 58.3121 55.9288 58.1702 55.615C58.03 55.3028 57.8564 55.0057 57.6561 54.727C57.3322 54.2613 56.94 53.849 56.491 53.5018C56.0419 53.1546 55.5429 52.8775 55.012 52.6805C54.48 52.4835 53.9211 52.3687 53.3545 52.34C52.787 52.3116 52.2195 52.3701 51.6703 52.5119C51.5451 52.5453 51.4199 52.5837 51.2964 52.6271C51.1729 52.6705 51.0527 52.7172 50.9325 52.769C50.8123 52.8224 50.6955 52.8792 50.5803 52.9409C50.4652 53.001 50.3516 53.0678 50.2415 53.1379L41.3079 58.8098C40.944 59.0402 40.5701 59.2572 40.1896 59.4608C39.8073 59.6628 39.4201 59.8514 39.0245 60.025C38.6289 60.1986 38.2266 60.3572 37.8193 60.4991C37.412 60.6426 36.9997 60.7695 36.5824 60.8813C34.7613 61.352 32.8801 61.5423 31.0023 61.4455C29.1244 61.3487 27.2733 60.9664 25.5106 60.3138C23.7479 59.6595 22.0954 58.7397 20.6099 57.588C19.1243 56.4362 17.8223 55.0658 16.749 53.5218C16.0897 52.5954 15.5238 51.6056 15.0614 50.5673C14.5974 49.5291 14.2385 48.4474 13.9898 47.3391C13.7411 46.2291 13.6042 45.0973 13.5809 43.9606C13.5558 42.8256 13.6443 41.6888 13.8463 40.5705C14.2409 38.3685 15.0902 36.2731 16.34 34.4178C17.5907 32.5625 19.215 30.9888 21.1089 29.7974L44.4443 14.9532C44.8066 14.7229 45.1771 14.5059 45.556 14.3022C45.9349 14.1003 46.3222 13.9116 46.7145 13.738C47.1076 13.5644 47.5074 13.4062 47.9129 13.264C48.3169 13.1204 48.7275 12.9919 49.1431 12.8801C50.9659 12.4077 52.8504 12.2141 54.73 12.3092C56.6111 12.406 58.4656 12.7866 60.2316 13.4426C61.9976 14.0969 63.6518 15.0183 65.1407 16.1717C66.6278 17.327 67.9303 18.7021 69.0033 20.2496C69.6643 21.1743 70.2335 22.1625 70.6992 23.2007C71.1649 24.239 71.5254 25.319 71.7775 26.429C72.0279 27.539 72.1681 28.6707 72.1931 29.8074C72.2198 30.9442 72.133 32.0809 71.9327 33.2009C71.8977 33.3846 71.8609 33.5682 71.8192 33.7501C71.7792 33.932 71.7358 34.114 71.689 34.2943C71.6439 34.4762 71.5939 34.6565 71.5421 34.8351C71.4904 35.0154 71.437 35.194 71.3785 35.3709L70.9329 36.7113L69.7444 35.8182C69.0567 35.3125 68.3473 34.8384 67.6195 34.3927C66.8917 33.9487 66.1439 33.5348 65.3811 33.1525C63.8539 32.3907 62.2654 31.7586 60.6322 31.263L59.7375 31.0043L59.8193 30.1112C59.8444 29.8058 59.8427 29.4986 59.8143 29.1949C59.7876 28.8911 59.7325 28.5889 59.6524 28.2935C59.5706 27.9997 59.4655 27.7109 59.3336 27.4355C59.2034 27.1584 59.0482 26.8947 58.8712 26.6443C58.5455 26.1868 58.1521 25.7816 57.7045 25.4425C57.2575 25.1019 56.761 24.8317 56.2322 24.6413C55.1698 24.2558 54.0149 24.204 52.9222 24.4927C52.7954 24.5261 52.6702 24.5645 52.5483 24.6062C52.4248 24.6496 52.3029 24.698 52.1828 24.7498C52.0642 24.8015 51.9457 24.8599 51.8306 24.92C51.7154 24.9818 51.6019 25.0469 51.4917 25.117L28.1847 39.9362C27.9009 40.1148 27.6355 40.3234 27.3951 40.5571C27.1548 40.7908 26.9378 41.0495 26.7492 41.3266C26.5621 41.6053 26.4039 41.9023 26.2768 42.213C26.1499 42.5251 26.0565 42.8473 25.9964 43.1778C25.9379 43.5166 25.9129 43.8605 25.9212 44.2043C25.9413 44.8926 26.0961 45.5703 26.3769 46.199C26.5185 46.512 26.6902 46.8105 26.8894 47.0904C27.2115 47.5511 27.6021 47.9617 28.0478 48.3055C28.4926 48.651 28.9873 48.9268 29.515 49.1235C30.5762 49.518 31.7321 49.5814 32.8301 49.3054C32.9552 49.2703 33.0804 49.232 33.204 49.1886C33.3258 49.1452 33.4477 49.0967 33.5678 49.045C33.6875 48.993 33.805 48.9362 33.92 48.8747C34.0352 48.8147 34.1487 48.7496 34.2589 48.6794L43.1924 43.0175C43.558 42.7838 43.9302 42.5635 44.3125 42.3598C44.6931 42.1545 45.082 41.9659 45.4793 41.7907C45.8752 41.617 46.2778 41.4588 46.6861 41.3166C47.095 41.173 47.509 41.0462 47.928 40.936C49.7507 40.462 51.6336 40.2683 53.5148 40.3618C55.396 40.457 57.2504 40.8375 59.0165 41.4919C60.7808 42.1462 62.4366 43.0659 63.9239 44.221C65.4128 45.3744 66.7148 46.7482 67.7881 48.2955C68.4491 49.2219 69.0166 50.2101 69.4823 51.2484C69.948 52.286 70.3092 53.3674 70.5606 54.4766C70.811 55.5849 70.9512 56.7167 70.9779 57.8534C71.0046 58.9918 70.9162 60.1285 70.7175 61.2469C70.5207 62.3449 70.2102 63.4196 69.7911 64.4534C69.3724 65.4875 68.8465 66.475 68.2221 67.3996C67.5995 68.3243 66.8817 69.1823 66.0805 69.9584C65.2793 70.7346 64.3996 71.4257 63.4549 72.0199L40.1462 86.8641C39.7806 87.0961 39.4067 87.3148 39.0261 87.5184C38.6439 87.7221 38.255 87.9107 37.8577 88.0843C37.4621 88.2596 37.0598 88.4181 36.6509 88.5617C36.2436 88.7052 35.8296 88.8338 35.4123 88.9456Z" fill="white"/>
</g>
</svg>
